<?xml version="1.0" encoding="iso-8859-1"?>
<!-- Uploaded to: SVG Repo, www.svgrepo.com, Generator: SVG Repo Mixer Tools -->
<svg version="1.1" id="Layer_1" xmlns="http://www.w3.org/2000/svg" xmlns:xlink="http://www.w3.org/1999/xlink" 
	 viewBox="0 0 511.6 511.6" xml:space="preserve">
<rect x="74.349" y="149.1" transform="matrix(-0.6804 -0.7329 0.7329 -0.6804 178.6345 397.426)" style="fill:#434A54;" width="203.269" height="21.318"/>
<path style="fill:#ED5564;" d="M63.95,85.262c0,47.104,38.173,85.276,85.269,85.276c47.088,0,85.262-38.173,85.262-85.276
	C234.481,38.173,196.308,0,149.219,0C102.123,0,63.95,38.173,63.95,85.262z"/>
<path style="fill:#48CFAD;" d="M87.182,143.763c15.55,16.472,37.587,26.775,62.037,26.775c24.715,0,46.971-10.522,62.545-27.338
	v-11.476c-1.514-4.371-5.004-7.915-9.602-9.445l-0.477-0.141c-6.862-1.842-9.18-3.606-12.232-4.762
	c-10.843-4.138-13.661-7.104-14.379-8.509c-0.023-0.062-0.047-0.109-0.07-0.156l-0.086-12.6l-25.699-0.281l-25.699,0.281
	l-0.093,12.6c-0.023,0.047-0.039,0.094-0.062,0.156c-0.726,1.405-3.544,4.371-14.379,8.509c-3.06,1.155-5.379,2.92-12.241,4.762
	l-0.468,0.141c-4.145,1.374-7.377,4.387-9.094,8.165L87.182,143.763L87.182,143.763z"/>
<path style="fill:#EAC6BB;" d="M113.559,81.093c0,23.169,22.084,44.48,35.66,44.48c13.568,0,35.66-21.312,35.66-44.48
	c0-23.17-15.972-38.454-35.66-38.454C129.524,42.639,113.559,57.923,113.559,81.093z"/>
<polygon style="fill:#434A54;" points="252.95,241.484 237.33,226.979 375.628,78.017 391.255,92.522 "/>
<path style="fill:#E6E9ED;" d="M458.297,287.776v-53.287c0-11.771-9.524-21.327-21.296-21.327H53.294
	c-11.772,0-21.319,9.556-21.319,21.327v53.287H458.297z"/>
<polygon style="fill:#F5F7FA;" points="394.348,511.6 31.975,511.6 31.975,255.8 458.297,255.8 458.297,319.75 458.297,457.643 "/>
<path style="fill:#ED5564;" d="M74.606,234.488c0,5.886-4.77,10.648-10.656,10.648s-10.656-4.763-10.656-10.648
	c0-5.885,4.77-10.663,10.656-10.663C69.836,223.825,74.606,228.603,74.606,234.488z"/>
<path style="fill:#FFCE54;" d="M106.58,234.488c0,5.886-4.77,10.648-10.655,10.648c-5.886,0-10.656-4.763-10.656-10.648
	c0-5.885,4.77-10.663,10.656-10.663C101.811,223.825,106.58,228.603,106.58,234.488z"/>
<g>
	<path style="fill:#A0D468;" d="M138.555,234.488c0,5.886-4.77,10.648-10.656,10.648s-10.656-4.763-10.656-10.648
		c0-5.885,4.77-10.663,10.656-10.663C133.786,223.825,138.555,228.603,138.555,234.488z"/>
	<rect x="74.61" y="447.65" style="fill:#A0D468;" width="159.87" height="63.949"/>
	<polygon style="fill:#A0D468;" points="394.348,511.6 255.8,511.6 255.8,447.651 415.674,447.651 	"/>
</g>
<rect x="74.61" y="298.44" style="fill:#48CFAD;" width="341.07" height="127.9"/>
<path style="fill:#434A54;" d="M341.076,351.725H149.219c-5.886,0-10.664,4.777-10.664,10.664c0,5.886,4.778,10.647,10.664,10.647
	h191.857c5.871,0,10.648-4.762,10.648-10.647C351.724,356.502,346.947,351.725,341.076,351.725z"/>
<path style="fill:#F6BB42;" d="M473.41,394.363c-12.646-31.257-43.278-53.302-79.063-53.302c-35.77,0-66.401,22.045-79.062,53.302
	h-6.121v28.634c-0.047,1.108-0.062,2.217-0.062,3.342c0,1.108,0.016,2.232,0.062,3.341l0,0l0,0
	c1.749,45.542,39.22,81.92,85.184,81.92c45.98,0,83.451-36.378,85.215-81.92h0.062v-35.316h-6.215V394.363z"/>
<path style="fill:#FFCE54;" d="M479.625,394.363c0,47.088-38.174,85.262-85.277,85.262c-47.088,0-85.246-38.174-85.246-85.262
	s38.158-85.277,85.246-85.277C441.451,309.086,479.625,347.276,479.625,394.363z"/>
<path style="fill:#E8AA3D;" d="M394.348,351.725c-5.871,0-10.648,4.777-10.648,10.664v63.95c0,5.886,4.777,10.647,10.648,10.647
	c5.902,0,10.68-4.762,10.68-10.647v-63.95C405.027,356.502,400.25,351.725,394.348,351.725z"/>
<path style="fill:#A0D468;" d="M255.8,85.262c0,47.104,38.173,85.276,85.276,85.276c47.089,0,85.246-38.173,85.246-85.276
	C426.322,38.173,388.164,0,341.076,0C293.973,0,255.8,38.173,255.8,85.262z"/>
<path style="fill:#5D9CEC;" d="M279.03,143.763c15.551,16.472,37.596,26.775,62.045,26.775c24.7,0,46.964-10.522,62.545-27.338
	v-11.476c-1.529-4.371-5.012-7.915-9.617-9.445l-0.469-0.141c-6.869-1.842-9.18-3.606-12.24-4.762
	c-10.835-4.138-13.645-7.104-14.363-8.509c-0.031-0.062-0.062-0.109-0.078-0.156l-0.078-12.6l-25.699-0.281l-25.698,0.281
	l-0.093,12.6c-0.031,0.047-0.047,0.094-0.078,0.156c-0.719,1.405-3.545,4.371-14.38,8.509c-3.06,1.155-5.371,2.92-12.241,4.762
	l-0.468,0.141c-4.138,1.374-7.369,4.387-9.087,8.165v13.319H279.03z"/>
<path style="fill:#EAC6BB;" d="M305.417,81.093c0,23.169,22.077,44.48,35.659,44.48c13.553,0,35.66-21.312,35.66-44.48
	c0-23.17-15.987-38.454-35.66-38.454C321.372,42.639,305.417,57.923,305.417,81.093z"/>
</svg>