<?xml version="1.0" encoding="iso-8859-1"?>
<!-- Uploaded to: SVG Repo, www.svgrepo.com, Generator: SVG Repo Mixer Tools -->
<svg fill="#000000" version="1.1" id="Layer_1" xmlns="http://www.w3.org/2000/svg" xmlns:xlink="http://www.w3.org/1999/xlink" 
	 viewBox="0 0 512 512" xml:space="preserve">
<g>
	<g>
		<path d="M0,53.328V160h106.672V53.328H0z M90.672,144H16V69.328h74.672V144z"/>
	</g>
</g>
<g>
	<g>
		<polygon points="31.952,80 31.952,133.328 78.144,106.672 		"/>
	</g>
</g>
<g>
	<g>
		<rect x="149.328" y="77.328" width="320" height="16"/>
	</g>
</g>
<g>
	<g>
		<rect x="149.328" y="120" width="362.672" height="16"/>
	</g>
</g>
<g>
	<g>
		<path d="M0,202.672v106.672h106.672V202.672H0z M90.672,293.328H16v-74.672h74.672V293.328z"/>
	</g>
</g>
<g>
	<g>
		<polygon points="31.952,229.328 31.952,282.672 78.144,256 		"/>
	</g>
</g>
<g>
	<g>
		<rect x="149.328" y="226.672" width="320" height="16"/>
	</g>
</g>
<g>
	<g>
		<rect x="149.328" y="269.328" width="362.672" height="16"/>
	</g>
</g>
<g>
	<g>
		<path d="M0,352v106.672h106.672V352H0z M90.672,442.672H16V368h74.672V442.672z"/>
	</g>
</g>
<g>
	<g>
		<polygon points="31.952,378.672 31.952,432 78.144,405.328 		"/>
	</g>
</g>
<g>
	<g>
		<rect x="149.328" y="376" width="320" height="16"/>
	</g>
</g>
<g>
	<g>
		<rect x="149.328" y="418.72" width="362.672" height="16"/>
	</g>
</g>
</svg>